<svg xmlns="http://www.w3.org/2000/svg" width="40" height="40" fill="none">
  <g filter="url(#a)">
    <path fill="#D5D5D5" d="M.465 27.392c.32-5.846 13.89-7.901 24.647-7.31 10.758.59 14.63 3.603 14.308 9.45-.32 5.845-14.372 7.704-25.13 7.113C3.534 36.055.145 33.238.466 27.392Z"/>
    <path fill="#B1A6A6" d="M3.865 14.674c.255-4.652 9.6-5.097 19.337-6.018 8.896-.842 13.257-.657 13.002 3.995-.256 4.652-12.535 7.833-21.094 7.363-8.56-.47-11.5-.688-11.245-5.34Z"/>
    <path fill="#565656" d="M9.78 5.616C9.942 2.682 16.906.374 22.306.671c5.4.296 8.036.735 7.875 3.67-.161 2.934-7.907 4.94-13.307 4.644-5.4-.296-7.255-.434-7.094-3.369Z"/>
  </g>
</svg>
